<?xml version="1.0" standalone="no"?>
<!DOCTYPE svg PUBLIC "-//W3C//DTD SVG 20010904//EN"
 "http://www.w3.org/TR/2001/REC-SVG-20010904/DTD/svg10.dtd">
<svg version="1.0" xmlns="http://www.w3.org/2000/svg"
 width="1000.000000pt" height="1000.000000pt" viewBox="0 0 1000.000000 1000.000000"
 preserveAspectRatio="xMidYMid meet">
<metadata>
Created by potrace 1.11, written by Peter Selinger 2001-2013
</metadata>
<g transform="translate(0.000000,1000.000000) scale(0.100000,-0.100000)"
fill="#000000" stroke="none">
<path d="M0 5000 l0 -5000 5000 0 5000 0 0 5000 0 5000 -5000 0 -5000 0 0
-5000z m8409 897 c30 -7 56 -17 58 -23 7 -21 -147 -57 -297 -69 -162 -13 -625
-77 -636 -88 -2 -2 -28 -57 -57 -123 -107 -236 -391 -1139 -422 -1343 -5 -27
-17 -54 -32 -69 -21 -21 -31 -24 -69 -19 -92 10 -120 67 -111 226 9 151 43
269 204 716 118 326 163 440 200 503 13 24 22 46 19 49 -9 9 -95 -12 -294 -71
-176 -53 -275 -79 -343 -91 -29 -5 -41 -2 -62 17 -32 27 -28 36 33 71 190 109
980 284 1415 313 55 3 102 8 104 10 10 9 240 1 290 -9z m-2208 -127 c49 -14
63 -44 57 -122 -11 -126 -103 -307 -250 -491 -37 -46 -135 -154 -218 -240
l-152 -156 -30 -103 c-40 -136 -44 -262 -10 -325 31 -60 91 -93 177 -98 37 -2
70 -7 73 -10 16 -15 -39 -46 -98 -56 -116 -19 -223 5 -286 63 -74 68 -92 186
-59 401 26 176 204 657 302 821 53 88 116 168 169 215 97 85 231 127 325 101z
m-3811 -36 c27 -52 19 -184 -18 -291 -59 -172 -373 -774 -490 -938 -242 -340
-474 -589 -595 -640 -47 -19 -130 -19 -167 0 -42 22 -56 56 -69 167 -30 259
11 663 115 1126 14 63 23 116 21 119 -9 9 -120 -68 -177 -123 -31 -29 -67 -76
-80 -104 -26 -57 -55 -67 -66 -24 -17 67 46 163 168 254 194 147 331 200 397
154 22 -16 23 -22 18 -84 -3 -37 -28 -168 -56 -291 -98 -438 -106 -494 -106
-761 0 -205 2 -239 16 -253 19 -19 13 -24 161 150 310 366 542 745 753 1230
27 61 65 158 85 216 21 59 40 112 44 118 11 18 29 8 46 -25z m2438 -61 c41
-20 54 -44 54 -102 0 -150 -205 -422 -426 -566 l-84 -55 -26 -77 c-14 -42 -24
-79 -21 -81 3 -3 31 20 63 50 80 77 125 98 207 98 99 0 145 -31 145 -96 0 -73
-95 -191 -220 -272 -35 -23 -69 -43 -74 -45 -13 -4 30 -212 57 -271 47 -103
149 -138 300 -102 49 11 57 11 57 -1 0 -68 -255 -137 -379 -103 -101 27 -216
198 -228 338 -7 88 -14 85 -81 -36 -26 -47 -61 -100 -78 -119 -29 -31 -33 -32
-63 -22 -58 20 -59 38 -12 236 23 98 59 240 80 316 l38 138 -26 -5 c-67 -14
-248 -36 -355 -42 l-118 -7 -22 -36 c-50 -85 -190 -420 -229 -551 -30 -101
-57 -215 -93 -405 -15 -77 -33 -146 -40 -154 -11 -12 -19 -9 -50 24 -20 22
-43 55 -51 74 -24 57 -28 204 -8 301 23 114 135 454 196 597 27 63 46 119 43
125 -4 6 -60 8 -159 3 -118 -6 -154 -4 -160 5 -11 18 16 35 93 59 76 23 221
51 261 51 24 0 33 11 75 88 151 273 189 322 248 322 35 0 38 -3 49 -40 11 -35
9 -47 -16 -117 -15 -43 -43 -108 -61 -145 -19 -37 -34 -72 -34 -78 0 -6 32
-10 79 -10 l79 0 5 29 c9 41 59 74 121 78 71 5 101 -12 100 -59 -1 -34 1 -36
39 -42 28 -5 44 -3 52 6 7 7 29 63 50 123 20 61 53 143 71 184 47 103 152 257
213 314 102 96 237 127 339 80z m3570 -359 c79 -55 -63 -161 -162 -120 -92 38
-26 135 94 136 26 0 55 -7 68 -16z m220 -236 c15 -15 15 -55 1 -97 -6 -18 -9
-35 -6 -38 3 -3 34 16 68 43 115 88 220 114 299 74 118 -60 90 -232 -60 -373
-114 -108 -255 -165 -376 -152 l-61 7 -47 -106 c-58 -130 -89 -220 -121 -351
-45 -180 -43 -175 -73 -175 -67 0 -92 63 -80 203 9 109 40 277 68 366 11 36
18 66 16 68 -2 2 -29 -10 -61 -27 -86 -45 -165 -36 -213 25 -36 45 -29 106 27
259 63 173 86 214 135 239 52 27 137 35 155 14 16 -20 -2 -84 -52 -183 -45
-89 -91 -238 -83 -270 6 -21 12 -24 50 -24 25 0 46 -5 48 -12 2 -6 15 18 27
53 32 86 144 311 189 378 25 36 50 60 77 72 47 22 57 23 73 7z m-709 -68 c26
-14 44 -64 37 -103 -7 -39 -47 -80 -95 -96 -55 -18 -61 -15 -61 30 l0 40 -41
-23 c-71 -39 -223 -237 -254 -330 -29 -86 -116 -134 -170 -95 -23 18 -18 87
20 242 62 254 77 283 172 314 75 25 112 -3 93 -69 -10 -35 -1 -38 26 -9 34 38
95 82 132 95 44 16 116 18 141 4z m-2597 -197 c64 -37 42 -114 -28 -97 l-26 7
16 -31 c18 -35 21 -121 5 -172 -5 -19 -16 -65 -23 -103 -13 -62 -12 -69 5 -91
25 -32 25 -35 -16 -52 -113 -47 -245 22 -233 122 4 37 -2 43 -22 18 -8 -8 -45
-34 -84 -57 -64 -38 -77 -42 -137 -42 -58 0 -71 4 -93 24 -99 93 -9 291 181
397 172 97 365 129 455 77z m-1378 -16 c18 -13 18 -16 1 -68 -10 -30 -33 -83
-51 -119 -40 -81 -86 -235 -78 -266 7 -27 32 -37 69 -28 44 11 26 -17 -35 -53
-87 -53 -179 -40 -226 32 -25 38 -14 122 31 240 61 162 91 218 126 239 61 36
132 46 163 23z m-759 -71 c25 -11 36 -23 43 -48 17 -66 -20 -127 -93 -153 -53
-18 -67 -11 -59 31 5 27 3 34 -9 34 -26 0 -112 -76 -158 -139 -24 -34 -59 -81
-76 -106 -18 -24 -42 -68 -53 -99 -26 -68 -68 -106 -117 -106 -70 0 -85 37
-59 138 8 28 13 52 11 52 -2 0 -40 -25 -85 -55 -209 -139 -457 -173 -563 -76
-94 86 -72 218 58 346 92 90 181 131 328 150 94 12 178 -33 197 -106 14 -53
-5 -94 -76 -158 -67 -62 -142 -91 -254 -99 -94 -8 -110 -22 -69 -60 69 -65
243 -11 423 132 72 57 75 61 92 125 25 96 51 138 99 161 51 25 120 27 129 4 4
-9 4 -32 0 -50 -3 -19 -3 -34 1 -34 4 0 32 22 62 50 77 71 159 94 228 66z"/>
<path d="M6049 5633 c-95 -105 -196 -276 -272 -464 -37 -94 -51 -139 -41 -139
9 0 105 106 167 183 72 89 146 202 172 262 19 41 55 181 55 210 0 20 -36 -4
-81 -52z"/>
<path d="M4632 5555 c-42 -48 -102 -155 -147 -265 -47 -114 -74 -200 -63 -200
17 0 156 139 209 210 70 93 119 193 119 245 0 45 -10 55 -55 55 -15 0 -37 -16
-63 -45z"/>
<path d="M4559 4832 c-30 -20 -203 -196 -226 -230 -22 -32 -12 -36 38 -16 114
45 229 167 229 243 0 25 -7 26 -41 3z"/>
<path d="M8793 4951 c-116 -64 -222 -168 -258 -254 -21 -51 -19 -57 18 -57 82
1 192 89 276 224 72 117 63 141 -36 87z"/>
<path d="M5090 4708 c-115 -44 -197 -115 -240 -209 -45 -99 -18 -92 121 32
143 127 186 162 224 182 l30 16 -40 0 c-22 0 -65 -9 -95 -21z"/>
<path d="M2300 4559 c-97 -67 -141 -126 -82 -113 104 23 180 78 182 132 0 22
-54 12 -100 -19z"/>
</g>
</svg>
